Coordinates
version=1
nRows=32
nColumns=12
inDegrees=yes

Units are S.I. units (second, meters, Newtons, ...)
Angles are in degrees

endheader
time	SC_y	SC_z	SC_x	AC_y	AC_z	AC_x	GH_y	GH_z	GH_yy	EL_x	PS_y
       0.0              -40.83           27.6          49.08          66.55          4.799         -9.448          154.2           89.5          92.62          33.23          153.8
   0.04776              -40.83           27.6          49.08          66.55          4.798         -9.448          154.2          89.48           92.6          33.23          153.8
   0.09552              -40.83          27.59          49.08          66.55          4.798         -9.448          154.1          89.47          92.58          33.24          153.8
    0.1433              -40.83          27.59          49.08          66.55          4.797         -9.448          154.1          89.45          92.56          33.24          153.8
     0.191              -40.83          27.59          49.08          66.55          4.797         -9.447          154.1          89.44          92.53          33.24          153.8
    0.2388              -40.82          27.58          49.08          66.55          4.796         -9.447          154.0          89.42           92.5          33.25          153.8
    0.2866              -40.82          27.58          49.08          66.55          4.795         -9.447          154.0           89.4          92.47          33.25          153.8
    0.3343              -40.82          27.57          49.08          66.55          4.794         -9.447          153.9          89.38          92.44          33.26          153.8
    0.3821              -40.82          27.56          49.08          66.55          4.794         -9.446          153.9          89.36          92.41          33.26          153.8
    0.4298              -40.82          27.56          49.08          66.55          4.793         -9.446          153.9          89.34          92.37          33.26          153.7
    0.4776              -40.82          27.55          49.08          66.55          4.792         -9.446          153.8          89.32          92.34          33.27          153.7
    0.5253              -40.82          27.54          49.08          66.56          4.791         -9.445          153.7          89.29          92.29          33.28          153.7
    0.5731              -40.81          27.53          49.08          66.56           4.79         -9.445          153.7          89.26          92.25          33.28          153.7
    0.6209              -40.81          27.53          49.08          66.56          4.788         -9.445          153.6          89.23           92.2          33.29          153.7
    0.6686              -40.81          27.52          49.08          66.56          4.787         -9.444          153.6           89.2          92.15           33.3          153.6
    0.7164              -40.81          27.51          49.08          66.56          4.786         -9.444          153.5          89.16          92.09           33.3          153.6
    0.7641               -40.8           27.5          49.08          66.56          4.784         -9.443          153.4          89.12          92.03          33.31          153.6
    0.8119               -40.8          27.48          49.08          66.56          4.783         -9.443          153.3          89.08          91.97          33.32          153.6
    0.8597               -40.8          27.47          49.08          66.56          4.781         -9.442          153.2          89.04          91.89          33.33          153.5
    0.9074              -40.79          27.46          49.08          66.57          4.779         -9.442          153.1          88.99          91.81          33.34          153.5
    0.9552              -40.79          27.44          49.08          66.57          4.777         -9.441          153.0          88.93          91.73          33.36          153.5
     1.003              -40.79          27.42          49.08          66.57          4.774          -9.44          152.9          88.87          91.63          33.37          153.4
     1.051              -40.78           27.4          49.08          66.57          4.772         -9.439          152.7           88.8          91.52          33.38          153.4
     1.098              -40.78          27.38          49.08          66.58          4.769         -9.438          152.6          88.73          91.41           33.4          153.3
     1.146              -40.77          27.36          49.08          66.58          4.766         -9.437          152.4          88.65          91.28          33.42          153.3
     1.194              -40.77          27.33          49.08          66.58          4.762         -9.436          152.2          88.55          91.13          33.44          153.2
     1.242              -40.76           27.3          49.08          66.59          4.758         -9.435          152.0          88.45          90.97          33.46          153.1
     1.289              -40.75          27.27          49.08          66.59          4.754         -9.433          151.7          88.33          90.78          33.49          153.1
     1.337              -40.74          27.23          49.08          66.59          4.748         -9.432          151.5           88.2          90.57          33.52          153.0
     1.385              -40.73          27.19          49.08           66.6          4.743          -9.43          151.1          88.05          90.34          33.55          152.9
     1.433              -40.72          27.14          49.08          66.61          4.736         -9.427          150.8          87.88          90.07          33.59          152.8
     1.481              -40.71          27.09          49.08          66.61          4.728         -9.425          150.4          87.69          89.76          33.63          152.6
